HIERARCHY
ROOT hip
{
  OFFSET 0 0 0
  CHANNELS 6 Xposition Yposition Zposition Zrotation Yrotation Xrotation
  JOINT abdomen
  {
    OFFSET 0 20.6881 -0.73152
    CHANNELS 3 Zrotation Xrotation Yrotation
    JOINT chest
    {
      OFFSET 0 11.7043 -0.48768
      CHANNELS 3 Zrotation Xrotation Yrotation
      JOINT neck
      {
        OFFSET 0 22.1894 -2.19456
        CHANNELS 3 Zrotation Xrotation Yrotation
        JOINT head
        {
          OFFSET -0.24384 7.07133 1.2192
          CHANNELS 3 Zrotation Xrotation Yrotation
          JOINT leftEye
          {
            OFFSET 4.14528 8.04674 8.04672
            CHANNELS 3 Zrotation Xrotation Yrotation
            End Site
            {
              OFFSET 1 0 0
            }
          }
          JOINT rightEye
          {
            OFFSET -3.6576 8.04674 8.04672
            CHANNELS 3 Zrotation Xrotation Yrotation
            End Site
            {
              OFFSET 1 0 0
            }
          }
        }
      }
      JOINT rCollar
      {
        OFFSET -2.68224 19.2634 -4.8768
        CHANNELS 3 Zrotation Xrotation Yrotation
        JOINT rShldr
        {
          OFFSET -8.77824 -1.95073 1.46304
          CHANNELS 3 Zrotation Xrotation Yrotation
          JOINT rForeArm
          {
            OFFSET -28.1742 -1.7115 0.48768
            CHANNELS 3 Zrotation Xrotation Yrotation
            JOINT rHand
            {
              OFFSET -22.5879 0.773209 7.07136
              CHANNELS 3 Zrotation Xrotation Yrotation
              JOINT rThumb1
              {
                OFFSET -1.2192 -0.487915 3.41376
                CHANNELS 3 Zrotation Xrotation Yrotation
                JOINT rThumb2
                {
                  OFFSET -3.37035 -0.52449 3.41376
                  CHANNELS 3 Zrotation Xrotation Yrotation
                  End Site
                  {
                    OFFSET -1.78271 -1.18214 1.43049
                  }
                }
              }
              JOINT rIndex1
              {
                OFFSET -7.75947 0.938293 5.60832
                CHANNELS 3 Zrotation Xrotation Yrotation
                JOINT rIndex2
                {
                  OFFSET -2.54057 -0.884171 1.56538
                  CHANNELS 3 Zrotation Xrotation Yrotation
                  End Site
                  {
                    OFFSET -1.62519 -0.234802 1.16502
                  }
                }
              }
              JOINT rMid1
              {
                OFFSET -8.24714 1.18213 3.41376
                CHANNELS 3 Zrotation Xrotation Yrotation
                JOINT rMid2
                {
                  OFFSET -3.10165 -0.590103 1.0647
                  CHANNELS 3 Zrotation Xrotation Yrotation
                  End Site
                  {
                    OFFSET -2.48547 -0.328903 0.83742
                  }
                }
              }
              JOINT rRing1
              {
                OFFSET -8.82822 0.546677 1.51678
                CHANNELS 3 Zrotation Xrotation Yrotation
                JOINT rRing2
                {
                  OFFSET -2.60934 -0.819778 -0.0198488
                  CHANNELS 3 Zrotation Xrotation Yrotation
                  End Site
                  {
                    OFFSET -2.33842 -0.294052 0.168128
                  }
                }
              }
              JOINT rPinky1
              {
                OFFSET -8.27202 -0.0477905 -0.4584
                CHANNELS 3 Zrotation Xrotation Yrotation
                JOINT rPinky2
                {
                  OFFSET -1.82734 -0.647385 -0.700984
                  CHANNELS 3 Zrotation Xrotation Yrotation
                  End Site
                  {
                    OFFSET -1.69225 -0.51767 -0.607171
                  }
                }
              }
            }
          }
        }
      }
      JOINT lCollar
      {
        OFFSET 2.68224 19.2634 -4.8768
        CHANNELS 3 Zrotation Xrotation Yrotation
        JOINT lShldr
        {
          OFFSET 8.77824 -1.95073 1.46304
          CHANNELS 3 Zrotation Xrotation Yrotation
          JOINT lForeArm
          {
            OFFSET 28.1742 -1.7115 0.48768
            CHANNELS 3 Zrotation Xrotation Yrotation
            JOINT lHand
            {
              OFFSET 22.5879 0.773209 7.07136
              CHANNELS 3 Zrotation Xrotation Yrotation
              JOINT lThumb1
              {
                OFFSET 1.2192 -0.487915 3.41376
                CHANNELS 3 Zrotation Xrotation Yrotation
                JOINT lThumb2
                {
                  OFFSET 3.37035 -0.52449 3.41376
                  CHANNELS 3 Zrotation Xrotation Yrotation
                  End Site
                  {
                    OFFSET 1.78271 -1.18214 1.43049
                  }
                }
              }
              JOINT lIndex1
              {
                OFFSET 7.75947 0.938293 5.60832
                CHANNELS 3 Zrotation Xrotation Yrotation
                JOINT lIndex2
                {
                  OFFSET 2.54057 -0.884171 1.56538
                  CHANNELS 3 Zrotation Xrotation Yrotation
                  End Site
                  {
                    OFFSET 1.62519 -0.234802 1.16502
                  }
                }
              }
              JOINT lMid1
              {
                OFFSET 8.24714 1.18213 3.41376
                CHANNELS 3 Zrotation Xrotation Yrotation
                JOINT lMid2
                {
                  OFFSET 3.10165 -0.590103 1.0647
                  CHANNELS 3 Zrotation Xrotation Yrotation
                  End Site
                  {
                    OFFSET 2.48547 -0.328903 0.83742
                  }
                }
              }
              JOINT lRing1
              {
                OFFSET 8.82822 0.546677 1.51678
                CHANNELS 3 Zrotation Xrotation Yrotation
                JOINT lRing2
                {
                  OFFSET 2.60934 -0.819778 -0.0198488
                  CHANNELS 3 Zrotation Xrotation Yrotation
                  End Site
                  {
                    OFFSET 2.33842 -0.294052 0.168128
                  }
                }
              }
              JOINT lPinky1
              {
                OFFSET 8.27202 -0.0477905 -0.4584
                CHANNELS 3 Zrotation Xrotation Yrotation
                JOINT lPinky2
                {
                  OFFSET 1.82734 -0.647385 -0.700984
                  CHANNELS 3 Zrotation Xrotation Yrotation
                  End Site
                  {
                    OFFSET 1.69225 -0.51767 -0.607171
                  }
                }
              }
            }
          }
        }
      }
    }
  }
  JOINT rButtock
  {
    OFFSET -8.77824 4.35084 1.2192
    CHANNELS 3 Zrotation Xrotation Yrotation
    JOINT rThigh
    {
      OFFSET 0 -1.70687 -2.19456
      CHANNELS 3 Zrotation Xrotation Yrotation
      JOINT rShin
      {
        OFFSET 0 -36.8199 0.73152
        CHANNELS 3 Zrotation Xrotation Yrotation
        JOINT rFoot
        {
          OFFSET 0.73152 -45.1104 -5.12064
          CHANNELS 3 Zrotation Xrotation Yrotation
          End Site
          {
            OFFSET -1.1221 -3.69964 12.103
          }
        }
      }
    }
  }
  JOINT lButtock
  {
    OFFSET 8.77824 4.35084 1.2192
    CHANNELS 3 Zrotation Xrotation Yrotation
    JOINT lThigh
    {
      OFFSET 0 -1.70687 -2.19456
      CHANNELS 3 Zrotation Xrotation Yrotation
      JOINT lShin
      {
        OFFSET 0 -36.8199 0.73152
        CHANNELS 3 Zrotation Xrotation Yrotation
        JOINT lFoot
        {
          OFFSET -0.73152 -45.1104 -5.12064
          CHANNELS 3 Zrotation Xrotation Yrotation
          End Site
          {
            OFFSET 1.1221 -3.69964 12.103
          }
        }
      }
    }
  }
}
MOTION
Frames:	5
Frame Time:	0.00833333
19.4844 84.6589 16.3948 0.0 0.0 0.0 -0.555335 -0.00305885 -0.0158853 -0.153306 -0.00476082 -0.0265629 -1.30425e-14 -7.95139e-16 -1.55301e-16 -3.91326e-14 3.18055e-15 -4.28629e-16 -0.0 0.0 0.0 -0.0 0.0 0.0 -6.56161e-15 -3.06719e-17 9.93923e-17 -1.34437e-13 -5.71506e-16 -9.93923e-16 -2.35803e-12 6.87596e-13 -1.27222e-14 -2.69918e-11 -8.07414e-13 -3.435e-13 -6.36721e-11 -2.61369e-13 -7.56972e-13 -1.09965e-10 -4.51639e-13 -1.3088e-12 -6.36695e-11 -2.5842e-13 -7.72875e-13 7.73091 5.47488 0.417314 -6.36729e-11 -2.60905e-13 -7.56972e-13 2.90554 0.965183 0.102902 -6.36626e-11 -2.60905e-13 -7.52996e-13 10.2786 0.731801 0.0259123 -6.36753e-11 -2.61203e-13 -7.41069e-13 2.22167 -0.733487 -0.20892 -6.55861e-15 -3.06719e-17 -2.48481e-16 -1.38778e-13 -7.82715e-16 -3.18055e-15 -2.35719e-12 -7.25166e-13 0.0 -2.69921e-11 6.12182e-13 -3.33958e-13 -6.3666e-11 -2.43515e-13 -7.53791e-13 -1.09938e-10 -4.23014e-13 -1.29449e-12 -6.36707e-11 -2.43312e-13 -7.4743e-13 -7.73091 5.47488 -0.417314 -6.36637e-11 -2.43809e-13 -7.50611e-13 -2.90554 0.965183 -0.102902 -6.36737e-11 -2.43213e-13 -7.53791e-13 -10.2786 0.731801 -0.0259123 -6.36616e-11 -2.41325e-13 -7.63333e-13 -2.22167 -0.733487 0.20892 -2.03217e-16 0.0 -3.88251e-19 0.0643807 -2.35906 -0.0223806 -0.00798343 -1.27852 -0.068456 -0.484668 3.63779 0.128963 2.03217e-16 0.0 3.88251e-19 -0.910399 -4.50047 0.076454 0.0020218 2.60026 0.00927659 0.492941 1.9005 -0.094782
19.7693 83.5124 12.7921 9.385 -49.0123 11.3717 -2.02519 -6.11155 0.415234 -0.0502125 -1.86351 0.105758 3.09604 3.41586 5.2393 -2.07006 -5.22836 9.93126 -0.0 0.0 0.0 -0.0 0.0 0.0 -2.02881e-13 -3.33727e-13 -3.12329e-14 -7.49124 -6.05097 -2.74636 1.34627 15.8248 -41.252 0.483909 -15.5404 -1.90497 2.28756e-11 -1.8527e-09 -8.22649e-10 7.77335e-11 -3.20887e-09 -1.41238e-09 2.28789e-11 -1.8527e-09 -8.22662e-10 7.73091 5.47488 0.417314 2.28749e-11 -1.8527e-09 -8.2265e-10 2.90554 0.965183 0.102902 2.28843e-11 -1.8527e-09 -8.22646e-10 10.2786 0.731801 0.0259123 2.28718e-11 -1.8527e-09 -8.22633e-10 2.22167 -0.733487 -0.20892 -2.02916e-13 -3.33724e-13 -3.15377e-14 12.0984 -7.23036 -1.35003 4.90377 -2.38365 -7.48294 -0.226339 -10.5881 1.39797 -1.08302e-09 2.78001e-10 1.91156e-10 -1.8736e-09 4.96665e-10 2.98887e-10 -1.08302e-09 2.78001e-10 1.91161e-10 -7.73091 5.47488 -0.417314 -1.08302e-09 2.78e-10 1.91153e-10 -2.90554 0.965183 -0.102902 -1.08302e-09 2.78e-10 1.91155e-10 -10.2786 0.731801 -0.0259123 -1.08301e-09 2.78003e-10 1.91146e-10 -2.22167 -0.733487 0.20892 -2.03217e-16 0.0 -3.88251e-19 -8.61053 -4.3993 2.65858 -0.00685983 3.05742 0.0238161 -1.12565 0.627747 -8.54955 2.03217e-16 0.0 3.88251e-19 -2.72486 -8.37225 -1.7811 0.00792833 3.28844 0.044151 0.390046 1.34703 6.9632
19.735 83.5054 12.7033 9.1357 -49.0195 11.5036 -3.46937 -12.5692 0.889963 0.0677209 -3.82898 0.246399 5.68218 6.93692 10.8387 -2.29691 -10.2377 20.6894 -0.0 0.0 0.0 -0.0 0.0 0.0 -4.19994e-13 -7.05553e-13 -5.69487e-14 -16.0583 -12.4002 -5.75594 17.2391 6.06909 -83.336 -0.309168 -31.9115 -4.44924 1.047e-10 -3.79095e-09 -1.68593e-09 2.59285e-10 -6.5654e-09 -2.89473e-09 1.04704e-10 -3.79094e-09 -1.68594e-09 7.73091 5.47488 0.417314 1.04699e-10 -3.79095e-09 -1.68593e-09 2.90554 0.965183 0.102902 1.04707e-10 -3.79095e-09 -1.68592e-09 10.2786 0.731801 0.0259123 1.04695e-10 -3.79095e-09 -1.68591e-09 2.22167 -0.733487 -0.20892 -4.2007e-13 -7.05547e-13 -5.72065e-14 24.5018 -14.8738 -2.854 9.41639 -4.76762 -15.434 0.135037 -21.7454 3.04195 -2.16387e-09 5.90259e-10 3.61741e-10 -3.74264e-09 1.05328e-09 5.60302e-10 -2.16388e-09 5.90259e-10 3.61745e-10 -7.73091 5.47488 -0.417314 -2.16387e-09 5.90258e-10 3.61732e-10 -2.90554 0.965183 -0.102902 -2.16387e-09 5.90257e-10 3.6174e-10 -10.2786 0.731801 -0.0259123 -2.16386e-09 5.9026e-10 3.61731e-10 -2.22167 -0.733487 0.20892 -2.03217e-16 0.0 -3.88251e-19 -17.5655 -6.53136 5.51806 -0.0208555 7.63626 0.122514 -2.78381 -2.428 -17.7481 2.03217e-16 0.0 3.88251e-19 -4.91491 -12.4466 -3.79613 0.0132551 4.01507 0.0810634 0.430175 0.750661 14.4196
19.7323 83.5021 12.6603 9.264 -49.143 11.3446 -4.67672 -18.3243 1.33827 0.181831 -5.5809 0.371995 7.41631 9.90311 15.9335 -0.914949 -13.7903 30.6421 -0.0 0.0 0.0 -0.0 0.0 0.0 -5.95519e-13 -1.00112e-12 -9.38974e-14 -24.283 -17.9817 -8.61702 22.5703 -24.5867 -104.099 -2.81939 -46.3665 -7.99271 1.95971e-10 -5.55758e-09 -2.46643e-09 4.53131e-10 -9.62571e-09 -4.23451e-09 1.95976e-10 -5.55757e-09 -2.46644e-09 7.73091 5.47488 0.417314 1.95971e-10 -5.55759e-09 -2.46644e-09 2.90554 0.965183 0.102902 1.95978e-10 -5.55759e-09 -2.46643e-09 10.2786 0.731801 0.0259123 1.95966e-10 -5.55759e-09 -2.46642e-09 2.22167 -0.733487 -0.20892 -5.95631e-13 -1.00111e-12 -9.4116e-14 35.2082 -21.641 -4.32311 12.886 -6.66412 -22.5903 1.09973 -31.6817 4.84599 -3.12171e-09 8.34491e-10 5.74974e-10 -5.40092e-09 1.49084e-09 8.99251e-10 -3.12173e-09 8.3449e-10 5.74977e-10 -7.73091 5.47488 -0.417314 -3.12172e-09 8.34489e-10 5.74961e-10 -2.90554 0.965183 -0.102902 -3.12172e-09 8.34488e-10 5.74973e-10 -10.2786 0.731801 -0.0259123 -3.12171e-09 8.3449e-10 5.74964e-10 -2.22167 -0.733487 0.20892 -2.03217e-16 0.0 -3.88251e-19 -25.3842 -8.41076 8.08447 -0.0470889 11.7292 0.212665 -5.0592 -4.83016 -26.0037 2.03217e-16 0.0 3.88251e-19 -7.13347 -16.0532 -5.66018 0.01722 4.66477 0.114079 0.586926 0.252038 21.0735
19.7615 83.5037 12.6452 9.5836 -49.2089 11.1084 -5.50262 -22.3273 1.66177 0.267985 -6.79904 0.458428 8.3447 11.8115 19.5591 0.786583 -15.5217 37.7622 -0.0 0.0 0.0 -0.0 0.0 0.0 -6.67077e-13 -1.10604e-12 -1.58928e-13 -30.3476 -21.8078 -10.7467 22.0437 -51.5803 -108.987 -6.50604 -56.2465 -12.1403 3.10861e-10 -6.89519e-09 -3.04001e-09 6.77712e-10 -1.19455e-08 -5.21783e-09 3.10866e-10 -6.89517e-09 -3.04002e-09 7.73091 5.47488 0.417314 3.10861e-10 -6.89519e-09 -3.04001e-09 2.90554 0.965183 0.102902 3.10868e-10 -6.89519e-09 -3.04001e-09 10.2786 0.731801 0.0259123 3.10855e-10 -6.89519e-09 -3.03999e-09 2.22167 -0.733487 -0.20892 -6.6721e-13 -1.10603e-12 -1.59127e-13 42.4699 -26.2662 -5.44224 15.0175 -7.80546 -27.6246 2.26396 -38.6416 6.45135 -3.77204e-09 9.08656e-10 8.94827e-10 -6.53231e-09 1.63073e-09 1.43204e-09 -3.77205e-09 9.08655e-10 8.9483e-10 -7.73091 5.47488 -0.417314 -3.77205e-09 9.08654e-10 8.94811e-10 -2.90554 0.965183 -0.102902 -3.77204e-09 9.08652e-10 8.94826e-10 -10.2786 0.731801 -0.0259123 -3.77203e-09 9.08655e-10 8.94817e-10 -2.22167 -0.733487 0.20892 -2.03217e-16 0.0 -3.88251e-19 -30.7693 -9.72091 9.86333 -0.0736988 14.6076 0.276851 -7.01903 -6.20615 -31.7605 2.03217e-16 0.0 3.88251e-19 -8.86409 -18.5473 -7.0046 0.0195548 5.12214 0.137211 0.743889 -0.0381901 25.7227
